/* XPM */
static char *_8b8d5089bb745869fa5b1842ddb464dUo8VSrFV8Tm1SG2c[] = {
/* columns rows colors chars-per-pixel */
"128 128 67 1 ",
"  c #232323",
". c gray14",
"X c #252525",
"o c #272727",
"O c #282828",
"+ c gray17",
"@ c #2C2B2C",
"# c #2D2D2D",
"$ c #2F2F30",
"% c gray19",
"& c gray20",
"* c #343333",
"= c #343334",
"- c #343434",
"; c #373737",
": c gray22",
"> c #3B3A3B",
", c gray23",
"< c #3C3B3B",
"1 c #3C3B3C",
"2 c #3E3E3E",
"3 c #403F3F",
"4 c #3F3F40",
"5 c #403F40",
"6 c #3F4040",
"7 c gray26",
"8 c #444343",
"9 c #434443",
"0 c #434344",
"q c #444344",
"w c #434444",
"e c #444444",
"r c gray28",
"t c #484747",
"y c #474748",
"u c #484748",
"i c #474848",
"p c #484848",
"a c #494949",
"s c #4C4B4B",
"d c #4B4C4B",
"f c #4C4C4B",
"g c #4B4B4C",
"h c #4C4B4C",
"j c #4B4C4C",
"k c #4E4E4E",
"l c #504F4F",
"z c #4F504F",
"x c #50504F",
"c c #4F4F50",
"v c #504F50",
"b c #4F5050",
"n c gray32",
"m c #545353",
"M c #545453",
"N c #535354",
"B c #545354",
"V c #535454",
"C c #565555",
"Z c gray34",
"A c #585857",
"S c #575758",
"D c #5A5A5A",
"F c #5B5B5B",
"G c gray37",
"H c #5F5F5F",
"J c #606060",
/* pixels */
"-:-::&&-*-:-:-&-:&---:---:-----::::::-:::-:-&--:::-::-:-:--:-:-2-&&---:--&:-------::--::::-:-:::-:-::-:--::&-:-:---:&--&-:--:---",
"-kkkknnkkkCkCSnnCnkbkknnnCknnC--&DFDGCSDGDJGDDDDCGDDGDDGCGDGGDGGGGDGGDDGDCDDJGGGDDGGGDGGJDGGGCDGCGDGGJGGCGDCSCCGDDDGDDGGDDDDCD2:",
":nr77rrra7777r7rrrra7rari777rr$-:DakaakaabakkknakkakkkCjkankjknknnkaakkkkkkakkannknCnnnnCnkknnakbnakakkkkakabkbkkknkankaakkkna--",
"-n7r77rrr77ra9rwr7r7arar7r7rrr#:-CkkkkgkkknnknakkbknknnknknknaknkkkknnakakakankCinknnnaknnkkkkkkkakjkjCkkkkkzaankakkankkaaankk--",
"&k7rarr7rr7rrr7rr7aaar7r77777r#--DnaakkkkkknnkkknkkaknknknkkkknNknannkknkkanbkCjknbknnnnnnVkknnkknkknknknnnkakkknnnkbnakkkakak&-",
"-nrr7r777r7rra7a7raruaraarrr77#-:DakaaakkkkkakaknannkknknknkkknankknkkknkCnkajknkkkndnnnnnzknnkknnnkCnknnknnnknknaknaknnnakkkj&-",
"-nr7aar7rraaraaakrkaarra07rr9a+-:CkankkgkankknknnkkknnnnknknnkkkknknknnkknnkankkCkbnnCnkSnnCnknnnkVbMCSknnnnnnkknkaakaknanaknk&-",
"-n73r7rra7r7rraaaa77rrra77rr7r#--DkkkkakndnakkkknkknknkknknknkakkknknnkkknkkknkkkkkknnknknnkkknkCnkknnnknkkkknkknkkkkknaknakaa&-",
"-Crrrrr7ararsrarrrr7a7rrrrr0r7#&-DkkkanakknjkkakCknknnkCnCkkbnknVScnCnnnkkbnnnzknknknCnnMnnCVbVCnCCznnnkkknCnkkBCkkCnnkakaakaa&-",
":krr7r7rr7rrarrr7rrraryrw7r777@:&SdkkaakfkkkkkknkkkMkkkknknkknnnCCVSnvkkknknknkkbknknnCknnVanCCnnkbxkznkMnknbnnkcknaakgnnkkaak#-",
"&aa779r7i7rr7rrraaraay777arr77+-:DaaakakxkaknkknnnnnnknadnkknkkkVnkknbmnnkCknacnCknakknkVnnknCCbkVzMnknnknkknkakkkakknannCaara&-",
"-ar77arrr7rraaaraa7r7ar7rr7r77#--DkkkkbkkdabknnnkknknkknnknnkkCnbCCnnkkkCVknknknnknnknlknnVCknkknnMnnnlknzknnfkknnkkkaakkkkgna&-",
"&k775777r7rrr7r7arrrrrr2700777+--DahaaankakkcnkkkkknnklkannnkkkkbnnnnknnkkkknnnknnkknnnkVnnkknknnnCbnkaanankkavkagkkkNnhksakuk#-",
"&k777r7wr7rqaaraarrarr77r7a776+-&DkakkakkkkankkckaknakkklnakkkkknnkklkknknvkkakkkhnnkkknnnknkkknCknmCknbknnankknngakNkakrakaaa#-",
"-k7q4arrrrrarar7arrrra8q7r7777#--DgkakaaknkhnalkkankkaknksnknCknknBnnnnknvknnkkknhvvnannNCnnVnnnVnnkvkkknsznkankkcnkkakkkaakar&&",
"&k277r777arrr7rarra7rrrr7q7777#--DaakskvkckknkaknknkkkknakkknCkkvnkkhnhnnknxkdkkaknknnnnknvkcCnnnbkknkknaknknskkkkkhNkaaakarrr&&",
"-k7r7777k7777a7rar77rr7rr27ar2#--DkakakkakkknknnkknkkannnanvkNCkkkNnahcknnkkCanavnkknkkknhncknknnnkhnkknkkkvkckknckknhakrrkrka&&",
"-k77rrrrraararrrr7aaur777r8r77#--DkaakakkknvhkkaahnnkklcakvkkCnkkknnkmakaknklnvkkkkhkhnakckkkCnknkkkkkknvkklkkknkkkkkkankakarr#&",
"-k77r77777qr7a7raaa77r7r577727@--CaabkknnakknknknkvananahnvhkaknaCnnkknCkhakkkkuckknnkknkkkkknnaknkkskkakkkakkannkaankkkaakrar#&",
"-a77rr7r7r7rrary7a77r777a77777#--DaaakkaakkakkkknkkkklkakknkkvnknnnCakakaknnknnkkknkkknskkkknakknkkknknkkknkakanakkknakavaraaa#-",
"&a77277ra77ruraatrrr2rr7r22572+&:DaaaaakaakkaCkkakavkakakkkkknknnkknCankakkakanhkkkkhkkkahnkkkkakkkkkkkkkkknakkaakakkkkkarkrrr#&",
"-k227727r7rrr7ar7r7r777772r227#-:naaaakkkaankvkkkkkkkkkkhaakkakkncnnkjjkkkkkkkakknakkkknkkkkkkkkkhkvlBkakknaaakanaakkvarararrr#&",
"&k22277a7757747r777r777r772422@--naaaaaakakaakjaakavakanakhnanankaCnkkkraaksavkrnaankkkkknknakrakaaakkanaakkaskuaaakrraarrarr7#&",
"-a22727777757777777rr777277727+:-nraaaaakrakkkkkkhkkkkaakanknrakkkakknarkkknakkkakkkaakaakaakakhkkkkakakankkkaahakaakkanaarrr7#-",
"-k272277:7777r777r777772rr2257+--Siaakaaakasakkakaakaaakaaaaanrkkanhkaakkkkkkkaakankkaknaanaakhkkaakkkakkhaakkakkauaakaakrra77+&",
"-a7777777777r777777722r2227774+--Carkarraaakksrkakkaakaakkakarkkkkckakakukrakkknkkaranhakkkhhkhaahlakaaksakaaraaaurtka7rur7rar+#",
":k2227235277r7777777272277:72:+--Crrrraaakaakakraakaksaaaaakukraaayaaknanaakkakaksaauakkatakaaaakakkcakakaarkakkakaahaaarrrr77+-",
":a:22:22722723r27q75442r377:2:+-&krarrakasaaakraaakkaaraaakras7anarkaarkchaaaaaaaaaaaaaaarraukaakaakakaaakaauauaaaaurra7rrrra7#&",
"-k222:2227272227772272277227:2+--naar7rrarrraraarraaaaaakr8raraa7raaaaalaaaaaaakakrahaakaarakkkrkaaraauaaararkaarysarrrrar7r7r+#",
"-a:722:223777q272222727:222121+-:k77ar7rrrruarahrarrartraar7aaauaaaaurarharrrrraaurharrrugaaarrrruaurtaarrrrauurrarrrr7ra7rrt7+-",
"-r2272277722272777772722122112+&:vq7rqrrqrrarararrrrarrrrrr7a70ra7r0qaarararkrraaarrarrkyrrkaurrqaaarakararrraaraaarqq7r77q77r+-",
"-r:772:::7r:22:222:2222:222:2:+--kr5rrrr77rar7ar7rrrar7r7rra7aa77rrrrarrrarrrraaraarrraarrrarraaar7aarrqrr7a7rrakaaqqr7rrr7r72#-",
"-r:272:22:r2222::52222::72::2:+&&nr77r77r7uaar7r7artaarr7rrrurrraarqr77rayrrarr7arrrrrraqr07rrrrrrraararrr7rr7a2rrraqr7r5r7r7a+&",
"-a:::2:227:2:22732322:522:7:12+&-n277qr7rrqrrrrrrr7uuurr0707qr7ra7taurrrar7aurkrurr77rraarrrarruqr7rraar7rqru7a7raaq77ur722r22+&",
"-r2:2:272212212:22222722172:2:X--k277r7rrqr7q77rr7rrr7r2777arrr77ur7qrr7a07raur77rrrr7t7rrr70urut7r7qq0rr77rqr7rq7rar77rr77r77+&",
"&a:2::22::2::<22::22::::::22:2X--a7277777277r7r57rrr777rr7rr2rqrrar7rrraryq7rr7rrq577r87r8r77r5rrqr7r77rrq77r277r27r7752272752X&",
"&r:22::-:5:722:2:2::2::222::2: &=k727772277rr7r777uu77r27r77r7072q7rr5rr0uq77777ra7qa77r77r77775r777rr725775r7r72777a77r277777+-",
"#r:::::::::-2:12::2:22::2::2:2+-&n727777777w2777r7727757r24r777rq725rr7q7rr72rr5q7r2727777777777757u5277q775277702r772r7777r72+-",
"&&XX+XXX# +X+X+ X++#XXX+X+XX+XX-&:##+#++######@+##++#X#&##+#@++#++#+@#####+@##++##+++#+@+@++++++++#@+++++@X+++##+@++#++XX+#++#X&",
"&------:&&:-&--&:---:::--:-:--::--:*&&-::-:--:--:---::-:--:-:-------:---&&&&-&&:--*-:::=-::------:-:---=---&&&---:&&-&&&-&-&----",
"----:---&&-::-::-::-::-::::---:---&&--:-::-:::-:----:--:--:::-:-:--&--&--:----:-:--:::----------------&---------&&------------:-",
"-GHDDSCDDDDDDDGDDDDGDGDGDCGDGDDDGGJDGDGDDDDGDDGGGDGDCDGDDGDDGGGGGDCDCS7--akknCkknnnnnnnCnkCnnSknnnCSnnnknnnnknCSnnnknnnnCBknnn--",
"-DaakkkahkakkkahrkkknakaaknnkkankankkkakkknkkkkankkkbkVkCknkkCkaakaana&&&nr7rr7arrrrr7arrarrr7rrrra77rrrraarrr77r7r7rrrrr77r77#-",
"&DaaaakaakaakknkkkkkkkkkkkakkkknknkknannnkkkkCnkakkbnnnknkkakankkkakki---n77r77w7rrrrira7rrrr7ra7rrar7ar7arraraaar7rr7777rw7rr&-",
"&GakkkCakkkknaknkkkknkknCbnknkkknkkanknakanakbnkkknCknnnCbbnakaknakrrk&&-n7raraaaararrarrrrrrraararrrraarrrrrrrrrrrrrr7rrarr7r+&",
"&DnankkbakaakknkknkkkknnkkjnkkkknankkakknknnaknknnCnknnbkkkbknnkaaknak&--n7arrarrraaaarrrra7arraaarrraaarrraraaa7rraarar7r7r77&-",
":CaaanaknnnnknkknaknnnnknnknnnnnknknnknkknkakkknknknknnCnknnnkakkaknak#--n7r7r777a7rra7rrrrr7rr7rrrwrar7rarrrr7rrrrrr7rr77rr7r+:",
":CkkakakkakanakknkkkkkkkkkknankakknknkakkkankanknknnnknankkkkkbCnradaa&-&n7r777rr7rra7rrrr7a77raarrrrrar7a7arrrar7ra7r7ra77r7r&-",
"-DaanankaskkkkkkkkkknnankannknkkkkknkkknkkkknknkknkknbkkCkkkaaaakkakaa#&&n7rrrrrr7arrka7kuraariarurrarr77ararrrra7arr7r7aa7rr7#-",
":Cgkkkakkakkkkkkakkkkknkkkkknknakkkaknknknkkkkknakkknkknkkkannkkakakkf&*&kr737r77r7aa77r7rrri7a77r7ru7rraarrrr7rraaar7rrrrr777+:",
"-CjagbnaknkaakaknknkCnkknkakkkkkkkkkknkhvgknknnajnkCCkkkkkkkjnakkuaaar&-&k77r777rr0ra7a77ra77rrrarrrrr7rrrrrarrr0aarr7qr7r7777#-",
"-GiaakaakaknnkkkkkkknkkknacknakankkkankkkkkakkakknnkbzkrkcCkkaaknahaar&--M775r77qra7arr77rrra7aarr7r7rra7raa7arrr7rrrr7777qr77+-",
"-DakakakakcaakfakaskaknkkkkkknkvnnkcknkkakkhkhkkbCkkknnkkknangaaakgaag&-&n773r7777rarrru7rr7r7rrrararar7arrr0r77r7a7rr7rrr7r77#&",
":CrakakkkkhkakkgkkkakknhnnkkakkkknankDkknknkkknnCknkknankkkkaCkkakkaya#:&kq77777rr777rrrrurrr7r7rarrs7uraa7r777arrrrrrr77r32r2+&",
":CarkaaakakkvakkvnanankkkkknkkkannkkkakkakaknkanknknaaakkkkkkgkaakaByh#:-k:7r777r777arar7a7r7rurarr77rrarrr7rqrr7r7777ar7rr770+&",
"-CrrrakakkukaaakakkaknkkanaaaknkkkjkCnlkkBvaakkarkknakakkanaakaaaaaarr#--n27r777rra7rra7r7rrrrr7ara7rrr77rrrrrr7r77ra7rq77r77:+&",
"-Cgrkuraakaalkkakkanaknkknkakkkakkkknkvaakakkkhakiakkaakkhkuhakknkraaa&-:k7r27r77rr777rqr7rr7aqarrqrr77a0r7arr7r777rq7r77r7777+-",
":Saaa7rauahakakannkaankaknkkkkkujkhkkkhakvvaaaaraaakkknakrraakkrrararr#--n722q727777rr77578rr7a7qr7777r7r7qr277rrrq2arr7r72q22+&",
"-VwaqrrraahaaaaaaaknlkkaakuhakaanhaaakBkkahkakaaanksknkkaaaaakaaarar7y#--a2777277755277q27r7r77a7rrr277r7rrrr7rrr27r7777727755+-",
"-nararrrsaarrkukaaarakakaaraakakahknakaaaraakkatkaraakrakrkaqrruaraaru#-:k22777777r7r77q77777772rrr777r7r7r7272r727r277r22777:+-",
":Drrrrrrrrrrurakkakakkrtkkhhakykanaangrrrarrkaarrnkrhrrkaaaaaraarrarrr#&-a257r272777257r727r7777772777777277r25777772777727772+&",
"-C7rirra7rraa7rrrrgaahaaatanaarahkaykakrarakaaarakaakakruaaarr7rr7r277#--r2727224787q27q7r7r277777rr2a27rrr7777r77772272722225+-",
"-nwrar7777rrurrkruaarauaurnuaaharurarrarrrk7raauuarrrkrkuakaurrr7r777r#--a222:777727772777r7757772787757777r7777272:2472:22:22+-",
":Cr5arrrrrr7rarrurusrrahlarrgaakarr7aahur77r7rarurrrarhahtrrra7rrr7ru7+-:a222772:2777252222377877773772r7r727277r7717722:72:22#:",
"-a2r77r777a77r7rrraaruaukararkaaraaraua7ruu7arrarquu7rqraar7rr777rrr77+--r2271:77:7:r72557522757r7r7277r577227227r2777724:2725+:",
"-B77rr7r42r7arruqraqaraaaquaa7rr7arrrkar7a07q57r7rrarrara7r77rqrr77757#&-a7:27:767122:227727772:2777712572q22275:7:2:2:7:2::2:+-",
":C7277777rr2rr7ra7rkraaava7rua2rra7r7r7rr7r5rryrrrur7rr72rrraqrrrqr777#-:7:::7:22:27:27772:27727r:222:211712257::21222r27:72:2+&",
"-k77r77r772r2qra2rrrur2ruyr77rr772q777arqq77r57r77q77r7r778rrqr5r77777+&-r:22:123:2:7222:12272:7:2272272427424:22222<22:2:212-X&",
"-n277777772r75a7rrqrr77rr7r27r7r8777r5r7qrr72727rrr7rr7777777i7i257r77+&=r:2::1:::767::21:2::52212q::521222222227:2:1212:2:2:1X=",
":a25722q2r72227722277rr7rr777r27r7r7r77rrqrr77r7752r277rr2727772277722+-&q::22-72:2::7:2722::2::22:2:::::2:2::::7::7::2:2:1:::X&",
"--++##++++X+X#++#+++##+#&####+###+@+#&#+##+###+#++X+#+####++####+##X+#+--&+XX++X+X++++@@XX++++XX+X@X@@XXXX+.X++XX+XXX++XXXXXXXX-",
"--:---&-&:-------&--=:&-&-:-:---:--=::--:=-&&:&-:-=&------&&---:&--&----:&--&-::-&&--&-:--:-&&:&--:--:--:--&&-----&--:=-:=--:---",
":2-::--:----:--&----::-:-:-:::::-::---:---::---::--:::-:--:--:--:::::-:-:---2-::-------:-:-::--&:-:---:---:-----:-:----::-&=:--:",
"GGGGDD2--nknnnkkknnknnCnnnCknCnnCnknnk2--GDDDGGDDDDCDDSGDGDDDGDDFSGFDGCJCGGGJDCGDGGDGGGDDDGCDDGGCDGGDDDDGDDGDDDGCDDGDGDDGDDCDGDD",
"nnaaka--:kr7r77ra7r7r7i7arr7iaar7r7rr7#--DakkaaakarkandnnCakakknjiCaankanakkakbknnannkkkkCnkkakknkkkkkannkaknkknnknkkkkaanakbkak",
"annkka&-:n7r77rrrrrr7rrraraarrw7rrir7r#-:CakkaakknkakarnknknCnkanankaCnknkkbbkCnknkkankankknaknnbkkkkknkkaanknnkkkkknakkkknkaaCa",
"kkkkkk&--kr7rr7rrrr7araraaarrrrrrrarr7#&-DaaarkaaakkkCnknkknknanakkkkankkkknnkaanbkknknaankkknkkknnkkknnnkanknkbkkknkknkaknkkkak",
"knkkaa&:&n7rr77rr7ar7rrraara797rarrrr7#--DkakkknnkajCkkkakkkkkknjknaanannkbknnnnknnnknkknaCnbkakknnbkkannkkknknkkkkkakkknnjakkak",
"akkkka---n7r777777rrrrrraarraararrr7r7#-:VakkanakakkkabkkknnanknnkknkCnnkknCnnkkCkknkCnknkakkkCkkkCkknnkkCnkCanknankkaanaknkknkb",
"nkkaak&-&kr7r7r777r7rrar7arrraarrr77r7#--CakkaakkkkkCbakakkakknaakkaknkkbCnkkknnkkVknnkkknjkkknnknnknnknnnkbnkkknkbkkkknkakanCka",
"kankyr&-:k77a7r77r77rrqrr7rr7rrrr7r7r7+--DakakaknkkknkjkaknanknkknknkknkDkakaVkkCbkkkkannkkCnknkkknkkknkankknnnnkknkkhknkankknnk",
"aakkak#&-kr77r77r7r7r7a7rr7rrar7r77772+-:CaaaaskakkakkaCnannckkakknknnnkbCCnnnbnkknnnnakannnknknnnnknnknVkCnkkkakannaknkgakkanna",
"ankhra-:-k7377r2wrrrrr7arr70rar78r7777#&-CjrakakkkaakbknkkkakkkskkkknkkkbkkkkCkknnknkngngkckjknkkkkknCmnnnnknnnnnkkananajknakakk",
"knvnaa$--krrrrwrr7rrr7a77rrrr777r7r777#::SkraarkakkkCkkkCkjknnanakknnCkkkckkknknknakkkanCkkkkknkknnbkkkkkkkkkkknnkkkkvkkknnkkknk",
"nakkkr&-*k7273r57r777rr777ar7rr7707r72+--DjaauaakktkkknkkaCajkkkakknknjnCkjnnbCnkkknknnknajgnkkhnnknkknnkannkCkkakankgkakkkaknak",
"khkkaq#--k77777rrr7r77rrt77r7r7qr7r77r+&:CgarrgakaakknkakkkhankknkaakaaknkCnnknnnnknkkkananaaknnnaknknnkknknvnkbnkkknkkkkaakhakk",
"kankgk#&-a777r72r78rrrrrrarr7r5777777r+:-nakraaaakkkaakkiabkkakakkakknkCkakkaaankaknkkkBavakkkvakknklkknnknkknkkkkknkgknakkvanav",
"karaua&&:k7r777777r777r77q777777777722X--Daakruaaaraknknkkkkaaankakakaknkkkakkkkakknnkakkkknanknakankkkankhkknknnakkkkaakknknraa",
"aukaa7#:-kr7q77777rrr7rrrqr72rqq772777+:-CirahraahtaknakkkanaauakkkkgkkkrhkhakkkavakkhhannkakknkanhkkCkkkvkkhkkkkkakhakarauaakra",
"kkkara&--v:3q77r7r277r77rq777r7277r772+:-Crrrwaaaatukkrraskaksaraknakkkahkkaknaknakhrkkakakknkakkknankakkkannvavkkkaakakkakahrak",
"aarrrr-::a5772777277277r72777777727772+-:Nrwarkaakaaaanaakkkhakknnaaakkaarkanaakakkaaarkkauhataaakakakkkkcaakkkaaakkkkaaaaakaara",
"ka8rrq#:2k7277227777777777272r77775727+-:Cr7rrraaaaaaakraaaakaaakrajauaykaakkanahkkaaaaNankrauhsaakkkkknknkkanaaaknkaauakakaak7r",
"77rrr7#:-k7727777q77777r7727q072q722w2X:-n7rrara7tkaurkakaaaakrrsskaarraakukruaakaaukraakaakrakakakvaahhgakkaahaaachakgaarrrurra",
"rrar72$-:a:22222272q7274777775272272-2#&-k7rrrrrrkrrarrakaakkaaararaaaraaavkakakrarrararaaataakagrrrkaykaaaakakkrarrarararr7aaaa",
"a7r77r#-:a2:722725277277572r6772275217+--C7rrryqaaarrrraryauuasarraknauaaaaauhraaaaaakuuuauuakyaaaarkaaarahaahahaaauaaraaaqru77r",
"7r777r+*-a22227527722577222522727:2222X--n2r77raaaar7rraaruarrtarraaarrrrkn5ar7rarrryrrrrrrrauarkrarasaarrrkrrarrarah77a0rar7rr7",
"rr7772+-:a22722:72227727522:7222222522+--k7777r27rtararurrraak7ta77uarrauqkrrr7r0rrqurrqur7rarr7aaar7arryraaharrqatyaaaurqrry0r7",
"r3rrr7#--a:722r2327::2:q7222725522:::2#-&n77r7r7raar77ar777a7r7rrrr7rr77arqr7raruyrrr7rra7r7uarrarr7yaa7rarruuarrrqurrrq77q70r7r",
"3r7777#-:r:2222:2272227:227:27226:2122X--k77777q77rarr7arrrrrrrra7r7w7rau7qrurq7r7rrrrr7rarrr7rrrr77rrrrurrrrrrrr7aar7r27r7rry77",
"rr77r7+:-a2:222:22::12222222:2:222:21:X--n27r277q77q7777782r7770rrr77rrrr7r57qrr7rr77r7rqr7rrrqrq7777rrrr7r7r7r7rrrrr77rr7qy2q7r",
"577772@--k2:::2227:28:222222221:7-2:22+--a72q77727q7a77a57rrr77r2q7777222r7r7r777777r77r7q77r57q5q577r77777ur7rr77rr77r2r777r777",
"7222r7+:-a2::2::2:2:1:::2::2::2::-:2:-X--k227277q2r7r2r7777a777717772r772722r77r27757r72r77q7r275rr777777rw7777rrr77777qr42r7277",
"+X#++++---X++XXXX+X+X+X+XXXXXXXXX#++.XX-=-+++++++++##+++++#++#+++#++#+++++#+#+##+#####+####+#++#+@####@+####@###+#+#+++#++@#++++",
"-&:---::&&&------:--:::--:::---=--&:-=-----&&&&&-:-&-=&&---&:--:&-------&&:------:--:::---:-:-:::-:------::--;---=---:-:--:-:---",
"::-&--&-:-----:-:-:-:-:--:----:---:--:&-----:-:--&&--------:--:----::----:--:-:----:--::--:--:---&&&--:-::::::-:-&-&:-:::--::--:",
"GDDDGDGDDDCGDGDDDDGGGGGDFDDGDGCGDDGJDGSCGGDDDDGGGDDDDDGGGGDGDD2--nnknnknkknnnnnnCnkCVCnnnknnnnknnnCkna:--CSDSCGDDDGDCDDDDGGGGGGJ",
"kakankkkaknannankkkkkknkknkkkkkkkkkkakkkkknkkkaakkaakkkkkaakka&--k777rr77r77rr777wr7a7r77rra7r7rr7r777#--CzkkkkakkkkbbCknknkkCna",
"knkknankknkjkkkkjknkknknkvkkkaknkkkkkankaCkknknnnkankkkakkaaak---n7777777r777rrrrrrrr7wrr7r77rr77rrwr7#-:DkaaCkkaakkknkknckakkkn",
"nanaankkakkknnnnnnknknCkkkkakknnknkkkknnkkknkakkkkknkkakknkkak&&:n7rr7k7r7rrr7rarrrrarraarrrr77rr772r7&&-DkaakkakanCkknnCkknakjk",
"akkCannnknankknkknnnnnakkknkbaanknkkknkkkkjnknnnakanCakkakakra::-kr7rrrr7r77rrrr7r77r7rr7r7arr77r7r772+--Cadaakknknnknkkkkknknnk",
"kabnknaaknknkkaaankaknkakkkkakkkakkkkkkakkakakkakkakjaaaaakkrk#::k272r2rararr7r7a77arrrrrr7ar7ar7r77r7#--DrraaakakanakkVkannnkak",
"Crakakkjknkkakkkkanknakkkkakaaaknakakknkanaknaknaaknkkakkaakak&::nr77r777777r7r7r7r7rrr777rr2r7777r727X-:Srjaakakjkkkknankkakann",
"akanakarakknvknkkknakCniCkknkkkkakkkkkkaankkakkakanaakkakkakka--&k2777r777r777r77rr7rr7r77rr7r77777r77#:&narakkakkaakkaanakaaasa",
"akaknnkrakkaaakkkkannaakaakakakaakakaaaakkakkaakkkkkkaakakaaa7&:-k7r7r7777777rr7777777r77777r772772227+--Daaaaaarraakkkkkakankkk",
"naakaakkrkakkkaakakakakaakkrakkanakkaaakkkkakkakaknkaaakaarary&-&a727rr7rr772r7rr7rrar77r7777777777777+&-Caaakkarnannaaakakjkkak",
"kaaaakksknarrkakkknakkarajakkakkkaraakkkaakkakkaarakaarrraaaar#--n2777227777r7727777r7r777777772772727#--V7rar7raakakakrakCkaaaa",
"kaaaakaarkarrkrayaakkkkktakaaraaanakakaykaaaaaatkrkaaaaaaaaaar#&-k77277777r27777777757r777777777772727+-&nrwrrrtakaaakkaaknakark",
"rkkauaskarkaaruaakaayaaaakaaaraaakaakrkrakrarraaraaaaaarus7ra7&&-a2775775727227277547272r777275277272rX--Carrraakykrukrartaaanaa",
"aaaCaktaaa7akaarkaaakavarsrargkakaarraakaaararaarrtaurkarrar0r+-:a2:777272r2727777272q77377737227725:2+-&n70ra7araaarr7raartaakr",
"rrrrrraaskrakarqaakraakraarrrrrrkaararaaraaaararrrrrarrarrrry7#--a22:27<77:722227272777727:22277272277+--Cr778r72aar7rrrrrkrrrrt",
"narraaararrkrrarrrarrrarrrrararhrarrar7ara7aarrarrrrrrrrrr7r7rX:-a7:77:222227272555727772722724<27227:+-&n7rr077r77rrr7rrra7rraa",
"7a7uqr7raaa00urqrrrrtur777rrrrrrrrqr7ra7rrra77ra7rr7auaqra7r27#-:a272:22:2227221774227227772272<222222X&-nq77777777rryyru777uaa0",
"r7r72arr7r77rrrrqr7q7rrrq7arr7rarrau77rrrrrrr7rrr7qrr77q777r77#--a:7-:222:527:22227777221222:72:2::::2+--n7rq727rrrqrrrr870rrrrr",
"r7ruru77ar78r7r7rrrqrq7qr7r77r22rrr077r7rqr7777qq77r27rr2r77r2+&-a2:2:::242::222:2-22:2222:1:2:7<272:2X--a277rr2r2277r5ra7a72277",
"2r7r77a5r777raq72r77277r72qr7777r75777777757777777r7277q727r74#-:a1:2::1:2:::12:7:7272::122221:2:7:271X&-a5275722r75r27a772r727r",
"r22:7277222r7r7727r7r27r7r77277777rr2u27qruq777r722222q2727277+=-r::2::2:::12=:2::1::22::::71:::22:-2:X&-a7777417r7777q2277r7727",
"+++++++X+++++X@###++++.+++&+#+++#X+#+++++#######+#+ ++#XX++X++#:-#XX+XXXX XXXXX+XXX+ X+XXX#XXX+XXX X XX&-## X+++ ++++###++#+++++",
"&&----&--&-----&&--==&&&&&&---:---=---&:-:-=----:&-&&--&&-&&==-2-:----=---&&---=--&----::-&&:=::&&&&---&#&&&&&-&&&&&-&:--=----&-"
};
